<svg width="1920" height="1080" viewBox="0 0 1920 1080" fill="none" xmlns="http://www.w3.org/2000/svg">
<g clip-path="url(#clip0_340_220)">
<rect width="1920" height="1080" fill="#000C3D"/>
<path d="M5 95.0218C46.9838 93.0226 91.0743 81.923 131.434 71.1834C233.132 44.1221 324.371 -1.06908 413.271 -57.0614C474.099 -95.3729 529.272 -140.072 597.189 -165.541C648.844 -184.912 706.997 -187.254 761.494 -183.496C857.461 -176.877 952.246 -146.331 1042.43 -114.696C1154.85 -75.2561 1263.32 -27.406 1373.45 17.6223C1441.84 45.5865 1513.56 67.5316 1585.43 84.6114C1640.75 97.7597 1699.4 110.411 1756.52 110.411C1845.63 110.411 1901.59 36.9348 1952.21 -27.1879" stroke="#3F9DC1" stroke-opacity="0.5" stroke-width="400" stroke-linecap="square"/>
<path d="M2076.21 1033.39C2034.23 1035.39 1990.13 1046.49 1949.77 1057.23C1848.08 1084.29 1756.84 1129.48 1667.94 1185.47C1607.11 1223.78 1551.94 1268.48 1484.02 1293.95C1432.36 1313.32 1374.21 1315.67 1319.72 1311.91C1223.75 1305.29 1128.96 1274.74 1038.78 1243.11C926.357 1203.67 817.891 1155.82 707.761 1110.79C639.367 1082.82 567.644 1060.88 495.78 1043.8C440.458 1030.65 381.806 1018 324.687 1018C235.574 1018 179.623 1091.48 129 1155.6" stroke="#3F9DC1" stroke-opacity="0.5" stroke-width="500" stroke-linecap="square"/>
<path d="M978.874 612.891C977.915 613.011 978.172 614.348 979.144 614.07C980.096 613.798 977.846 613.401 977.391 613.531C976.736 613.718 978.187 614.603 978.74 613.497C979.145 612.686 976.859 612.793 978.268 613.497" stroke="white" stroke-opacity="0.7" stroke-linecap="round"/>
<path d="M1345.44 786.94V787.632" stroke="white" stroke-opacity="0.7" stroke-width="3" stroke-linecap="round"/>
<path d="M596 606V606.692" stroke="white" stroke-opacity="0.7" stroke-width="3" stroke-linecap="round"/>
<path d="M1554 358V358.692" stroke="white" stroke-opacity="0.7" stroke-width="3" stroke-linecap="round"/>
<path d="M478.654 339.849V340.957" stroke="white" stroke-opacity="0.7" stroke-width="5" stroke-linecap="round"/>
<path d="M199 279V280.109" stroke="white" stroke-opacity="0.7" stroke-width="5" stroke-linecap="round"/>
<path d="M1882.19 477.472V478.073" stroke="white" stroke-opacity="0.7" stroke-width="7" stroke-linecap="round"/>
<path d="M29 688V688.12" stroke="white" stroke-opacity="0.7" stroke-width="9" stroke-linecap="round"/>
</g>
<defs>
<clipPath id="clip0_340_220">
<rect width="1920" height="1080" fill="white"/>
</clipPath>
</defs>
</svg>
