<svg width="64" height="64" viewBox="0 0 64 64" fill="none" xmlns="http://www.w3.org/2000/svg">
<path d="M15.6283 10.7237L12.2949 13.0069C7.2394 16.4697 4.7116 18.2011 3.3558 20.6423C2 23.0836 2 25.9038 2 31.5441L2 37.661C2 48.7314 2 54.2668 5.90523 57.7061C9.04887 60.4743 13.7348 61.0144 22 61.1196V49.441C22 46.7163 22 45.3538 22.5075 44.2793C23.1841 42.8463 24.4819 41.7081 26.1153 41.1146C27.3407 40.6696 28.8937 40.6696 32 40.6696C35.1063 40.6696 36.6593 40.6696 37.8847 41.1146C39.518 41.7081 40.816 42.8463 41.4927 44.2793C42 45.3538 42 46.7163 42 49.441V61.1196C50.2653 61.0144 54.951 60.4743 58.0947 57.7061C62 54.2668 62 48.7314 62 37.661V31.5441C62 25.9038 62 23.0836 60.6443 20.6423C59.2883 18.2011 56.7607 16.4697 51.705 13.0069L48.3717 10.7237C40.507 5.33676 36.5747 2.64331 32 2.64331C27.4253 2.64331 23.4929 5.33676 15.6283 10.7237Z" stroke="white" stroke-width="4" stroke-linejoin="round"/>
</svg>
