<svg width="113" height="109" viewBox="0 0 113 109" fill="none" xmlns="http://www.w3.org/2000/svg">
<path d="M86.7083 77.6667V31.3333C86.7083 17.6823 86.7083 10.8567 82.2846 6.61583C77.8603 2.375 70.7402 2.375 56.5 2.375H32.3333C18.093 2.375 10.9728 2.375 6.54889 6.61583C2.125 10.8567 2.125 17.6823 2.125 31.3333V77.6667C2.125 91.3176 2.125 98.1431 6.54889 102.384C10.9728 106.625 18.093 106.625 32.3333 106.625H56.5C70.7402 106.625 77.8603 106.625 82.2846 102.384C86.7083 98.1431 86.7083 91.3176 86.7083 77.6667Z" stroke="#DDDDDD" stroke-width="4"/>
<path d="M50.458 106.625H86.708C98.1002 106.625 103.796 106.625 107.335 103.232C110.875 99.8395 110.875 94.3791 110.875 83.4583V42.9167C110.875 31.9958 110.875 26.5353 107.335 23.1427C103.796 19.75 98.1002 19.75 86.708 19.75" stroke="#DDDDDD" stroke-width="4"/>
<path d="M62.542 48.7083V60.2916" stroke="#DDDDDD" stroke-width="4" stroke-linecap="round"/>
</svg>
