<svg width="73" height="73" viewBox="0 0 73 73" fill="none" xmlns="http://www.w3.org/2000/svg">
<path d="M42.583 10.6458H30.4163C18.9455 10.6458 13.2101 10.6458 9.64653 14.2093C6.08301 17.7728 6.08301 23.5082 6.08301 34.9791V38.0208C6.08301 49.4915 6.08301 55.2272 9.64653 58.7905C13.2101 62.3541 18.9455 62.3541 30.4163 62.3541H42.583C54.0537 62.3541 59.7894 62.3541 63.3527 58.7905C66.9163 55.2272 66.9163 49.4915 66.9163 38.0208V34.9791C66.9163 23.5082 66.9163 17.7728 63.3527 14.2093C59.7894 10.6458 54.0537 10.6458 42.583 10.6458Z" stroke="#DDDDDD" stroke-opacity="0.866667" stroke-width="2.25" stroke-linejoin="round"/>
<path d="M15.208 48.6666C18.3582 40.8158 30.1005 40.2993 33.458 48.6666" stroke="#DDDDDD" stroke-opacity="0.866667" stroke-width="2.25" stroke-linecap="round"/>
<path d="M29.6566 29.6562C29.6566 32.5959 27.2734 34.9791 24.3337 34.9791C21.3939 34.9791 19.0107 32.5959 19.0107 29.6562C19.0107 26.7164 21.3939 24.3333 24.3337 24.3333C27.2734 24.3333 29.6566 26.7164 29.6566 29.6562Z" stroke="#DDDDDD" stroke-opacity="0.866667" stroke-width="2.25"/>
<path d="M42.583 25.8542H57.7913M42.583 36.5001H57.7913M42.583 47.1459H50.1872" stroke="#DDDDDD" stroke-opacity="0.866667" stroke-width="2.25" stroke-linecap="round" stroke-linejoin="round"/>
</svg>
