<svg width="44" height="38" viewBox="0 0 44 38" fill="none" xmlns="http://www.w3.org/2000/svg">
<g clip-path="url(#clip0_844_222)">
<path d="M35.75 15.4375C35.75 18.8441 34.4695 21.991 32.3125 24.5441L43.1922 33.9477C44.2664 34.8754 44.2664 36.382 43.1922 37.3098C42.118 38.2375 40.3734 38.2375 39.2992 37.3098L28.4195 27.9063C25.4633 29.7766 21.8195 30.875 17.875 30.875C8.00078 30.875 0 23.9652 0 15.4375C0 6.90977 8.00078 0 17.875 0C27.7492 0 35.75 6.90977 35.75 15.4375ZM17.875 26.125C19.5001 26.125 21.1093 25.8486 22.6107 25.3115C24.1121 24.7744 25.4763 23.9871 26.6254 22.9947C27.7746 22.0023 28.6861 20.8241 29.308 19.5274C29.9299 18.2308 30.25 16.841 30.25 15.4375C30.25 14.034 29.9299 12.6442 29.308 11.3476C28.6861 10.0509 27.7746 8.87272 26.6254 7.8803C25.4763 6.88787 24.1121 6.10064 22.6107 5.56354C21.1093 5.02644 19.5001 4.75 17.875 4.75C16.2499 4.75 14.6407 5.02644 13.1393 5.56354C11.6379 6.10064 10.2737 6.88787 9.12455 7.8803C7.97543 8.87272 7.06389 10.0509 6.44199 11.3476C5.82009 12.6442 5.5 14.034 5.5 15.4375C5.5 16.841 5.82009 18.2308 6.44199 19.5274C7.06389 20.8241 7.97543 22.0023 9.12455 22.9947C10.2737 23.9871 11.6379 24.7744 13.1393 25.3115C14.6407 25.8486 16.2499 26.125 17.875 26.125Z" fill="#242F5B"/>
</g>
<defs>
<clipPath id="clip0_844_222">
<rect width="44" height="38" fill="white"/>
</clipPath>
</defs>
</svg>
